<svg width="250" height="217" fill="none" xmlns="http://www.w3.org/2000/svg"><g clip-path="url(#clip0)"><path opacity=".24" d="M232.675 158.998c-7.954 4.062-17.487 4.402-24.59 10-1.291 1.019-2.477 2.164-3.541 3.419-7.549 8.971-9.496 23.048-17.05 32.483-10.75 13.419-30.013 14.145-45.892 9.536-15.879-4.61-30.766-13.406-47.0628-15.566-25.2557-3.332-54.3228 8.732-74.4356-8.061-6.5114-5.446-10.94266-13.226-14.82286-21.039 0 0 0-.028-.02756-.046-2.98936-5.974-5.813415-12.542-5.1613568-19.302.4913398-5.014 2.8561968-9.55 5.1613568-13.939C12.3432 123.004 25.0813 106.611 27.267 91.0594c2.0251-14.3294-5.7537-30.0238 3.6277-43.4892 6.8879-14.2467 20.3975-24.564 35.1744-26.7975 11.2549-1.6959 22.6705 1.0432 34.0259.5239 21.583-.9835 41.094-13.51141 62.038-19.11817 20.944-5.60676 47.945-.88697 56.137 20.64387 5.51 14.5822.28 31.5128 3.921 46.7613 4.95 20.6807 25.32 34.8304 27.621 56.0674 1.455 13.443-5.768 27.515-17.137 33.347z" fill="#E5E9F2"/><path d="M93.5382 65.8059c6.1762 4.6876 7.9988 13.5068 6.066 20.9656-1.9332 7.4588-6.9706 13.7505-12.4855 19.1825 3.2489-.585 6.5919-.358 9.7321.661 3.1402 1.019 5.9802 2.799 8.2682 5.18 2.219 2.409 3.797 5.339 4.586 8.518.79 3.18.767 6.508-.067 9.676 6.465-4.661 14.502-6.592 22.377-5.377 7.876 1.214 14.959 5.478 19.722 11.871 5.363-7.812 11.42-16.112 20.544-18.842 7.839-2.349 16.237-.042 24.085 2.261-6.773-2.551-10.676-10.221-10.135-17.367.542-7.1466 4.836-13.6127 10.319-18.2957-4.592.7353-8.532-3.3871-10.562-7.5324-3.689-7.5552-4.3-16.2494-1.703-24.2469-12.458 3.4973-27.033-3.9753-31.286-16.0666-1.864 2.1795-4.148 3.9595-6.717 5.2334-2.568 1.2738-5.367 2.0151-8.229 2.1795-2.577.131-5.157-.2133-7.609-1.0157-1.92-.625-5.272-3.6766-6.98-3.7869-2.526-.1562-4.592 8.139-6.387 10.8827-5.309 8.0884-13.905 14.1547-23.5388 15.9195z" fill="url(#paint0_linear)"/><path d="M142.865 114.824c17.06 0 30.89-13.842 30.89-30.9156 0-17.0741-13.83-30.9153-30.89-30.9153-17.06 0-30.89 13.8412-30.89 30.9153 0 17.0736 13.83 30.9156 30.89 30.9156z" fill="#E5E9F2"/><path d="M143.122 111.184c16.188 0 29.311-13.1336 29.311-29.3345 0-16.2009-13.123-29.3344-29.311-29.3344-16.188 0-29.31 13.1335-29.31 29.3344 0 16.2009 13.122 29.3345 29.31 29.3345z" fill="url(#paint1_linear)"/><path d="M142.984 114.824c17.147 0 31.047-13.14 31.047-29.3485s-13.9-29.3482-31.047-29.3482c-17.146 0-31.046 13.1397-31.046 29.3482s13.9 29.3485 31.046 29.3485z" fill="url(#paint2_linear)"/><path d="M124.47 100.356c5.462 0 9.891-4.1847 9.891-9.3472 0-5.1626-4.429-9.3477-9.891-9.3477-5.463 0-9.891 4.1851-9.891 9.3477 0 5.1625 4.428 9.3472 9.891 9.3472z" fill="url(#paint3_linear)"/><path d="M163.621 95.6458c5.462 0 9.891-4.1851 9.891-9.3476 0-5.1626-4.429-9.3477-9.891-9.3477-5.463 0-9.891 4.1851-9.891 9.3477 0 5.1625 4.428 9.3476 9.891 9.3476z" fill="url(#paint4_linear)"/><path opacity=".61" d="M204.544 172.417c-1.828 2.23-3.39 4.667-4.651 7.261-4.161 8.245-6.673 18.061-12.399 25.222-10.75 13.419-30.013 14.145-45.892 9.536-15.879-4.61-30.766-13.406-47.0628-15.566-20.5903-2.721-43.7062 4.807-62.4506-1.425-4.3782-1.431-8.4441-3.683-11.9804-6.636-.7439-.625-1.4557-1.264-2.1399-1.935-4.5093-4.435-7.9578-10-10.99311-15.772-.57859-1.112-1.15718-2.229-1.70821-3.346 0 0 0-.027-.02755-.046 14.23507-4.936 30.01307 2.532 45.28127 3.543 7.8615.52 16.0122-.684 23.4558 1.903 3.5863 1.25 6.9614 3.364 10.7359 3.617 3.343.239 6.5711-1.025 9.8544-1.682 9.5142-1.889 19.2862 1.278 28.9892 1.379 14.882.119 28.975-7.009 43.825-7.974 8.95-.579 25.702-2.036 37.163 1.921z" fill="#E5E9F2"/><path d="M199.893 179.678c-4.161 8.245-6.673 18.061-12.399 25.222-10.75 13.419-30.013 14.145-45.892 9.536-15.879-4.61-30.766-13.406-47.0628-15.566-20.5903-2.721-43.7062 4.807-62.4506-1.425 6.0798-2.368 12.1549-4.729 18.2255-7.082 2.0847-.804 4.1924-1.622 6.4287-1.861 2.3787-.266 4.7849.147 7.1497.519 10.3043 1.592 20.7163 2.384 31.1427 2.367 4.8491 0 9.7668-.193 14.4188 1.158 2.783.805 5.414 2.16 8.265 2.712 4.877.919 9.841-.552 14.571-2.027l32.929-10.189c9.184-2.844 21.747-7.84 31.409-4.894 1.15.365 2.248.879 3.265 1.53zM68.6865 123.753c-.7975 2.171-2.1278 4.105-3.8683 5.626-1.7405 1.522-3.8353 2.58-6.0916 3.078-.9184.193-1.9057.313-2.6772.8-.2084.127-.3984.281-.5648.46-.5969.684-.7301 1.65-.8495 2.573-.4133 3.619-.8388 7.234-1.2765 10.846-.5052 4.27-1.0103 8.539-1.2491 12.827-.3033 6.229-.1098 12.473.5786 18.672.1929 1.723.3582 3.612-.6245 5.055-.2911.423-.6644.782-1.0974 1.057-.9355.58-1.9688.983-3.0491 1.191-2.9867.687-6.0462 1.007-9.1105.951-.7163 0-1.4418-.028-2.1582-.087-5.3496-.4-1.9745-9.477-1.5612-12.602.9505-6.948.4592-14.371-.5052-21.292-.0459-.34-.0872-.684-.1607-1.025-.0928-.362-.2382-.709-.4316-1.029-.5016-.65-1.1256-1.195-1.8368-1.604-4.5644-3.139-7.3471-8.465-8.1783-13.943-.8311-5.478.0459-11.099 1.6348-16.393.5097-1.682 1.3775-3.585 3.049-3.929.0491-.016.1-.026.1516-.028 2.0204-.299 3.5082 1.903 3.9812 3.897 1.0837 4.536-.2526 9.417 1.0102 13.911.5648 1.977 2.4843 4.136 4.344 3.217 1.1709-.565 1.4832-1.99 1.575-3.359v-.032c0-.239.0276-.46.0276-.685.1123-7.895.6857-15.776 1.7174-23.604.3582-2.706.7898-5.473 1.9608-7.946 1.1479-2.3618 3.3888-4.5677 5.9695-4.462.1282-.0138.2575-.0138.3857 0 2.2455.2849 3.9399 2.2978 4.592 4.467.652 2.169.5051 4.476.4316 6.737-.0904 2.979-.0107 5.96.2388 8.93l.1791 1.87c.0872.896.1929 1.774.3123 2.666 1.249.772 3.0031-.106 3.6735-1.416.6704-1.31.5832-2.886.4592-4.343-.1377-1.695-.2525-3.391-.3903-5.087-.1572-1.186-.1059-2.389.1515-3.557.1225-.459.3356-.89.6265-1.265.291-.376.6541-.69 1.068-.923.2077-.121.4344-.206.6704-.253 1.9883-.399 3.5679 1.623 4.4863 3.438 2.5991 5.138 4.3211 11.177 2.4062 16.595z" fill="#E5E9F2"/><path d="M110.294 184.692c-8.77.791-17.6329 1.595-26.3576.386-7.5813-1.057-15.1535-3.612-22.744-2.647-1.9866.297-3.9563.699-5.9006 1.204-9.5972 2.226-19.3836 3.537-29.2278 3.916-2.7457.043-5.4701.489-8.0865 1.323-4.5185-4.435-7.967-10-11.00232-15.772 9.10122-.487 18.21172-.46 27.09252 1.379 2.8241.597 5.6344 1.378 8.5043 1.668 6.3783.685 12.8897-.919 19.222.046 3.2557.519 6.3461 1.696 9.3676 3.005 2.296.979 4.5919 2.068 7.09 2.468 1.7268.198 3.465.277 5.2026.239 3.1685.06 6.3048.414 9.4411.786 5.7828.653 11.5827 1.319 17.3987 1.999z" fill="url(#paint5_linear)"/><path d="M39.3393 140.73c-.3122.979-.9505 2.022-1.9608 2.141-.5661.014-1.1242-.136-1.6071-.432-1.5823-.836-2.9804-1.983-4.1116-3.371-1.1311-1.388-1.9722-2.989-2.4733-4.708-1.5154-5.239.2663-10.625 0-15.933-.0459-.97-.4592-2.261-.5373-3.424.0491-.016.1001-.025.1516-.028 2.0204-.298 3.5082 1.903 3.9812 3.898 1.0837 4.535-.2526 9.416 1.0102 13.911.5648 1.976 2.4843 4.136 4.344 3.217 1.171-.566 1.4832-1.99 1.5751-3.36.0597.607.101 1.232.1331 1.839.1056 2.114.1516 4.255-.5051 6.25z" fill="url(#paint6_linear)"/><path d="M63.5573 112.576c.0275 3.902-.6842 8.231-3.7333 10.653-1.0561.837-2.3189 1.379-3.3291 2.248-.6245.551-.9965 1.875-1.5751 2.1-.1056 4.255-.225 8.24-.2847 8.732-.4133 3.618-.8388 7.233-1.2765 10.845-.5052 4.27-1.0103 8.539-1.2491 12.827-.3033 6.23-.1098 12.474.5786 18.672.1929 1.724.3582 3.613-.6245 5.056-.2911.422-.6644.782-1.0975 1.057-.8688-.896-1.4851-2.006-1.7862-3.217-1.1159-3.677-.7439-7.647-.4133-11.49.5327-6.176.949-12.36 1.249-18.552.5051-10.846.6475-21.692.4271-32.538-.1133-5.432-.3154-10.853-.6062-16.264-.0918-1.411-1.0424-5.4139-.4592-6.8432.1282-.0137.2575-.0137.3858 0 2.2454.285 3.9399 2.2979 4.5919 4.4672.6521 2.169.5051 4.476.4317 6.737-.0905 2.979-.0108 5.96.2387 8.93l.1791 1.87c.0873.896.1929 1.774.3123 2.666 1.249.772 3.0031-.106 3.6735-1.416.6705-1.31.5832-2.886.4592-4.343-.1377-1.696-.2525-3.391-.3903-5.087-.1571-1.186-.1058-2.39.1516-3.557.1225-.46.3355-.89.6265-1.265.291-.376.654-.69 1.0679-.923.0459.046.0872.106.1332.152 1.9148 2.325 2.3051 5.51 2.3189 8.483z" fill="url(#paint7_linear)"/><path d="M43.2517 180.915c0 1.314 0 2.683-.6016 3.865-.4347.826-1.1198 1.494-1.9572 1.907-.8373.413-1.7838.549-2.7036.39-.2071-.024-.3998-.118-.5465-.266-.1284-.205-.1789-.45-.1423-.69.3459-8.554.6918-17.103 1.0378-25.648.1515-3.824.3122-7.68 1.2719-11.384.5006-1.93 1.2169-3.805 1.6026-5.763.5051-2.541.4592-5.156.3766-7.748-.1378-5.193-.2847-10.396-.0368-15.589.225-4.678.2985-10.781 2.3695-15.037 2.2409 1.655.5464 9.959.4592 12.56-.1684 5.129-.3215 10.259-.4592 15.391-.2602 10.169-.447 20.342-.5602 30.52-.046 5.84-.0827 11.67-.1102 17.492z" fill="url(#paint8_linear)"/></g><defs><linearGradient id="paint0_linear" x1="140.206" y1="17.2247" x2="143.182" y2="159.324" gradientUnits="userSpaceOnUse"><stop stop-color="#fff" stop-opacity="0"/><stop offset=".13" stop-color="#fff" stop-opacity=".23"/><stop offset=".23" stop-color="#fff" stop-opacity=".41"/><stop offset=".35" stop-color="#fff" stop-opacity=".59"/><stop offset=".48" stop-color="#fff" stop-opacity=".74"/><stop offset=".6" stop-color="#fff" stop-opacity=".85"/><stop offset=".72" stop-color="#fff" stop-opacity=".93"/><stop offset=".84" stop-color="#fff" stop-opacity=".98"/><stop offset=".95" stop-color="#fff"/></linearGradient><linearGradient id="paint1_linear" x1="15154.2" y1="6989.51" x2="25609.1" y2="18336.4" gradientUnits="userSpaceOnUse"><stop stop-color="#fff" stop-opacity="0"/><stop offset=".13" stop-color="#fff" stop-opacity=".23"/><stop offset=".23" stop-color="#fff" stop-opacity=".41"/><stop offset=".35" stop-color="#fff" stop-opacity=".59"/><stop offset=".48" stop-color="#fff" stop-opacity=".74"/><stop offset=".6" stop-color="#fff" stop-opacity=".85"/><stop offset=".72" stop-color="#fff" stop-opacity=".93"/><stop offset=".84" stop-color="#fff" stop-opacity=".98"/><stop offset=".95" stop-color="#fff"/></linearGradient><linearGradient id="paint2_linear" x1="15929.4" y1="7361.47" x2="26611.9" y2="19637.1" gradientUnits="userSpaceOnUse"><stop stop-color="#fff" stop-opacity="0"/><stop offset=".13" stop-color="#fff" stop-opacity=".23"/><stop offset=".23" stop-color="#fff" stop-opacity=".41"/><stop offset=".35" stop-color="#fff" stop-opacity=".59"/><stop offset=".48" stop-color="#fff" stop-opacity=".74"/><stop offset=".6" stop-color="#fff" stop-opacity=".85"/><stop offset=".72" stop-color="#fff" stop-opacity=".93"/><stop offset=".84" stop-color="#fff" stop-opacity=".98"/><stop offset=".95" stop-color="#fff"/></linearGradient><linearGradient id="paint3_linear" x1="5119.86" y1="3417.47" x2="6203.57" y2="4663.07" gradientUnits="userSpaceOnUse"><stop stop-color="#fff" stop-opacity="0"/><stop offset=".13" stop-color="#fff" stop-opacity=".23"/><stop offset=".23" stop-color="#fff" stop-opacity=".41"/><stop offset=".35" stop-color="#fff" stop-opacity=".59"/><stop offset=".48" stop-color="#fff" stop-opacity=".74"/><stop offset=".6" stop-color="#fff" stop-opacity=".85"/><stop offset=".72" stop-color="#fff" stop-opacity=".93"/><stop offset=".84" stop-color="#fff" stop-opacity=".98"/><stop offset=".95" stop-color="#fff"/></linearGradient><linearGradient id="paint4_linear" x1="6845.64" y1="3221.13" x2="7929.35" y2="4466.72" gradientUnits="userSpaceOnUse"><stop stop-color="#fff" stop-opacity="0"/><stop offset=".13" stop-color="#fff" stop-opacity=".23"/><stop offset=".23" stop-color="#fff" stop-opacity=".41"/><stop offset=".35" stop-color="#fff" stop-opacity=".59"/><stop offset=".48" stop-color="#fff" stop-opacity=".74"/><stop offset=".6" stop-color="#fff" stop-opacity=".85"/><stop offset=".72" stop-color="#fff" stop-opacity=".93"/><stop offset=".84" stop-color="#fff" stop-opacity=".98"/><stop offset=".95" stop-color="#fff"/></linearGradient><linearGradient id="paint5_linear" x1="14013.9" y1="6307.82" x2="14046.1" y2="8345.78" gradientUnits="userSpaceOnUse"><stop stop-color="#010101" stop-opacity="0"/><stop offset=".95" stop-color="#010101"/></linearGradient><linearGradient id="paint6_linear" x1="985.383" y1="7419.64" x2="66.3013" y2="13358.6" gradientUnits="userSpaceOnUse"><stop stop-color="#010101" stop-opacity="0"/><stop offset=".95" stop-color="#010101"/></linearGradient><linearGradient id="paint7_linear" x1="1989.12" y1="20288.3" x2="9424.22" y2="66125.2" gradientUnits="userSpaceOnUse"><stop stop-color="#010101" stop-opacity="0"/><stop offset=".95" stop-color="#010101"/></linearGradient><linearGradient id="paint8_linear" x1="573.119" y1="25737.5" x2="4260.8" y2="25835.3" gradientUnits="userSpaceOnUse"><stop stop-color="#010101" stop-opacity="0"/><stop offset=".95" stop-color="#010101"/></linearGradient><clipPath id="clip0"><path d="M0 0h250v217H0V0z" fill="#fff"/></clipPath></defs></svg>