<svg width="250" height="217" fill="none" xmlns="http://www.w3.org/2000/svg"><g clip-path="url(#clip0)"><path opacity=".24" d="M232.674 158.998c-7.953 4.062-17.486 4.402-24.589 10-1.291 1.019-2.478 2.164-3.541 3.419-7.549 8.971-9.496 23.048-17.05 32.483-10.75 13.419-30.013 14.145-45.892 9.536-15.879-4.61-30.766-13.406-47.0629-15.566-25.2557-3.332-54.3228 8.732-74.4356-8.061-6.5114-5.446-10.94264-13.226-14.82285-21.039 0 0 0-.028-.02755-.046-2.98936-5.974-5.813419-12.542-5.1613607-19.302.4913397-5.014 2.8562007-9.55 5.1613607-13.939 7.09-13.479 19.8281-29.872 22.0139-45.4236 2.025-14.3294-5.7538-30.0238 3.6276-43.4892 6.8879-14.2467 20.3975-24.564 35.1744-26.7975 11.2549-1.6959 22.6705 1.0432 34.026.5239 21.583-.9835 41.094-13.51141 62.038-19.11817 20.944-5.60676 47.944-.88697 56.136 20.64387 5.511 14.5822.281 31.5128 3.922 46.7613 4.95 20.6807 25.32 34.8304 27.621 56.0674 1.455 13.443-5.768 27.515-17.138 33.347z" fill="#E5E9F2"/><path d="M93.5382 65.8059c6.1762 4.6876 7.9988 13.5068 6.066 20.9656-1.9332 7.4588-6.9706 13.7505-12.4855 19.1825 3.2489-.585 6.5919-.358 9.7321.661 3.1402 1.019 5.9802 2.799 8.2682 5.18 2.219 2.409 3.797 5.339 4.586 8.518.79 3.18.767 6.508-.067 9.676 6.465-4.661 14.502-6.592 22.377-5.377 7.876 1.214 14.959 5.478 19.722 11.871 5.363-7.812 11.42-16.112 20.544-18.842 7.839-2.349 16.237-.042 24.085 2.261-6.773-2.551-10.676-10.221-10.135-17.367.542-7.1466 4.836-13.6127 10.319-18.2957-4.592.7353-8.532-3.3871-10.562-7.5324-3.689-7.5552-4.3-16.2494-1.703-24.2469-12.458 3.4973-27.033-3.9753-31.286-16.0666-1.864 2.1795-4.148 3.9595-6.717 5.2334-2.568 1.2738-5.367 2.0151-8.229 2.1795-2.577.131-5.157-.2133-7.609-1.0157-1.92-.625-5.272-3.6766-6.98-3.7869-2.526-.1562-4.592 8.139-6.387 10.8827-5.309 8.0884-13.905 14.1547-23.5388 15.9195z" fill="#E5A800"/><path d="M142.865 114.824c17.06 0 30.89-13.842 30.89-30.9156 0-17.0741-13.83-30.9153-30.89-30.9153-17.06 0-30.89 13.8412-30.89 30.9153 0 17.0736 13.83 30.9156 30.89 30.9156z" fill="#E5E9F2"/><path d="M143.122 111.184c16.188 0 29.31-13.1336 29.31-29.3345 0-16.2009-13.122-29.3344-29.31-29.3344s-29.31 13.1335-29.31 29.3344c0 16.2009 13.122 29.3345 29.31 29.3345z" fill="#E5A800"/><path d="M142.984 114.824c17.147 0 31.046-13.14 31.046-29.3485s-13.899-29.3482-31.046-29.3482c-17.146 0-31.046 13.1397-31.046 29.3482s13.9 29.3485 31.046 29.3485z" fill="#FAEFD0"/><path d="M124.47 100.356c5.462 0 9.891-4.1847 9.891-9.3472 0-5.1626-4.429-9.3477-9.891-9.3477-5.463 0-9.891 4.1851-9.891 9.3477 0 5.1625 4.428 9.3472 9.891 9.3472z" fill="#FAEFD0"/><path d="M163.621 95.6458c5.462 0 9.891-4.1851 9.891-9.3476 0-5.1626-4.429-9.3477-9.891-9.3477-5.463 0-9.892 4.1851-9.892 9.3477 0 5.1625 4.429 9.3476 9.892 9.3476z" fill="url(#paint0_linear)"/><path opacity=".61" d="M204.544 172.417c-1.828 2.23-3.389 4.667-4.651 7.261-4.161 8.245-6.672 18.061-12.399 25.222-10.749 13.419-30.013 14.145-45.892 9.536-15.879-4.61-30.766-13.406-47.0627-15.566-20.5903-2.721-43.7062 4.807-62.4506-1.425-4.3782-1.431-8.4441-3.683-11.9804-6.636-.7439-.625-1.4557-1.264-2.1399-1.935-4.5093-4.435-7.9579-10-10.99314-15.772-.57858-1.112-1.15717-2.229-1.70821-3.346 0 0 0-.027-.02755-.046 14.2351-4.936 30.013 2.532 45.2813 3.543 7.8614.52 16.0122-.684 23.4557 1.903 3.5864 1.25 6.9614 3.364 10.736 3.617 3.343.239 6.5711-1.025 9.8544-1.682 9.5141-1.889 19.2861 1.278 28.9891 1.379 14.882.119 28.975-7.009 43.826-7.974 8.949-.579 25.701-2.036 37.162 1.921z" fill="#E5E9F2"/><path d="M199.892 179.678c-4.16 8.245-6.672 18.061-12.398 25.222-10.75 13.419-30.013 14.145-45.892 9.536-15.879-4.61-30.766-13.406-47.063-15.566-20.5903-2.721-43.7062 4.807-62.4506-1.425 6.0797-2.368 12.1549-4.729 18.2255-7.082 2.0847-.804 4.1924-1.622 6.4287-1.861 2.3786-.266 4.7848.147 7.1497.519 10.3043 1.592 20.7163 2.384 31.1426 2.367 4.8492 0 9.7671-.193 14.4191 1.158 2.782.805 5.414 2.16 8.265 2.712 4.877.919 9.841-.552 14.571-2.027l32.928-10.189c9.184-2.844 21.748-7.84 31.409-4.894 1.151.365 2.249.879 3.265 1.53zM68.6866 123.753c-.7975 2.171-2.1278 4.105-3.8683 5.626-1.7405 1.522-3.8353 2.58-6.0916 3.078-.9184.193-1.9057.313-2.6772.8-.2084.127-.3984.281-.5648.46-.5969.684-.7301 1.65-.8495 2.573-.4133 3.619-.8388 7.234-1.2765 10.846-.5052 4.27-1.0103 8.539-1.2491 12.827-.3033 6.229-.1098 12.473.5786 18.672.1929 1.723.3582 3.612-.6245 5.055-.2911.423-.6644.782-1.0975 1.057-.9354.58-1.9687.983-3.049 1.191-2.9867.687-6.0463 1.007-9.1105.951-.7163 0-1.4418-.028-2.1582-.087-5.3496-.4-1.9745-9.477-1.5613-12.602.9506-6.948.4592-14.371-.5051-21.292-.0459-.34-.0872-.684-.1607-1.025-.0928-.362-.2382-.709-.4316-1.029-.5016-.65-1.1256-1.195-1.8368-1.604-4.5644-3.139-7.3471-8.465-8.1783-13.943-.8311-5.478.0459-11.099 1.6347-16.393.5098-1.682 1.3776-3.585 3.0491-3.929.0491-.016.1-.026.1515-.028 2.0205-.299 3.5083 1.903 3.9813 3.897 1.0837 4.536-.2526 9.417 1.0102 13.911.5648 1.977 2.4842 4.136 4.344 3.217 1.1709-.565 1.4832-1.99 1.575-3.359v-.032c0-.239.0276-.46.0276-.685.1122-7.895.6857-15.776 1.7174-23.604.3582-2.706.7898-5.473 1.9607-7.946 1.148-2.3618 3.3889-4.5677 5.9696-4.462.1282-.0138.2575-.0138.3857 0 2.2455.2849 3.9399 2.2978 4.592 4.467.652 2.169.5051 4.476.4316 6.737-.0904 2.979-.0107 5.96.2388 8.93l.1791 1.87c.0872.896.1928 1.774.3122 2.666 1.2491.772 3.0032-.106 3.6736-1.416.6704-1.31.5832-2.886.4592-4.343-.1378-1.695-.2526-3.391-.3903-5.087-.1572-1.186-.1059-2.389.1515-3.557.1225-.459.3356-.89.6265-1.265.291-.376.6541-.69 1.068-.923.2077-.121.4344-.206.6704-.253 1.9883-.399 3.5679 1.623 4.4863 3.438 2.5991 5.138 4.3211 11.177 2.4062 16.595z" fill="#E5E9F2"/><path d="M110.294 184.692c-8.77.791-17.633 1.595-26.3577.386-7.5813-1.057-15.1534-3.612-22.7439-2.647-1.9867.297-3.9563.699-5.9007 1.204-9.5972 2.226-19.3835 3.537-29.2278 3.916-2.7457.043-5.4701.489-8.0865 1.323-4.5185-4.435-7.967-10-11.0023-15.772 9.1013-.487 18.2117-.46 27.0926 1.379 2.824.597 5.6343 1.378 8.5043 1.668 6.3782.685 12.8896-.919 19.2219.046 3.2557.519 6.3461 1.696 9.3676 3.005 2.296.979 4.5919 2.068 7.09 2.468 1.7268.198 3.465.277 5.2027.239 3.1684.06 6.3047.414 9.441.786 5.7828.653 11.5828 1.319 17.3988 1.999z" fill="url(#paint1_linear)"/><path d="M39.3393 140.73c-.3123.979-.9506 2.022-1.9608 2.141-.5661.014-1.1242-.136-1.6072-.432-1.5822-.836-2.9804-1.983-4.1115-3.371-1.1312-1.388-1.9722-2.989-2.4734-4.708-1.5153-5.239.2664-10.625 0-15.933-.0459-.97-.4592-2.261-.5372-3.424.0491-.016.1-.025.1515-.028 2.0205-.298 3.5083 1.903 3.9812 3.898 1.0837 4.535-.2525 9.416 1.0103 13.911.5648 1.976 2.4842 4.136 4.344 3.217 1.1709-.566 1.4832-1.99 1.575-3.36.0597.607.101 1.232.1332 1.839.1056 2.114.1515 4.255-.5051 6.25z" fill="url(#paint2_linear)"/><path d="M63.5573 112.576c.0275 3.902-.6842 8.231-3.7333 10.653-1.0562.837-2.3189 1.379-3.3292 2.248-.6245.551-.9964 1.875-1.575 2.1-.1056 4.255-.225 8.24-.2847 8.732-.4133 3.618-.8388 7.233-1.2766 10.845-.5051 4.27-1.0102 8.539-1.249 12.827-.3033 6.23-.1098 12.474.5786 18.672.1929 1.724.3582 3.613-.6245 5.056-.2911.422-.6644.782-1.0975 1.057-.8688-.896-1.4851-2.006-1.7863-3.217-1.1158-3.677-.7439-7.647-.4132-11.49.5326-6.176.949-12.36 1.249-18.552.5051-10.846.6474-21.692.427-32.538-.1132-5.432-.3153-10.853-.6061-16.264-.0919-1.411-1.0424-5.4139-.4592-6.8432.1282-.0137.2575-.0137.3857 0 2.2455.285 3.9399 2.2979 4.592 4.4672.652 2.169.5051 4.476.4316 6.737-.0904 2.979-.0107 5.96.2388 8.93l.1791 1.87c.0872.896.1929 1.774.3122 2.666 1.2491.772 3.0032-.106 3.6736-1.416.6704-1.31.5832-2.886.4592-4.343-.1378-1.696-.2526-3.391-.3903-5.087-.1572-1.186-.1059-2.39.1515-3.557.1225-.46.3355-.89.6265-1.265.291-.376.6541-.69 1.068-.923.0459.046.0872.106.1331.152 1.9149 2.325 2.3052 5.51 2.319 8.483z" fill="url(#paint3_linear)"/><path d="M43.2519 180.915c0 1.314 0 2.683-.6016 3.865-.4347.826-1.1198 1.494-1.9572 1.907-.8373.413-1.7838.549-2.7036.39-.2071-.024-.3998-.118-.5465-.266-.1284-.205-.1789-.45-.1423-.69.3459-8.554.6918-17.103 1.0378-25.648.1515-3.824.3122-7.68 1.2719-11.384.5006-1.93 1.2169-3.805 1.6026-5.763.5051-2.541.4592-5.156.3766-7.748-.1378-5.193-.2847-10.396-.0368-15.589.225-4.678.2985-10.781 2.3695-15.037 2.2409 1.655.5464 9.959.4592 12.56-.1684 5.129-.3215 10.259-.4592 15.391-.2602 10.169-.447 20.342-.5602 30.52-.046 5.84-.0827 11.67-.1102 17.492z" fill="url(#paint4_linear)"/></g><defs><linearGradient id="paint0_linear" x1="6845.64" y1="3221.13" x2="7929.35" y2="4466.72" gradientUnits="userSpaceOnUse"><stop stop-color="#fff" stop-opacity="0"/><stop offset=".13" stop-color="#fff" stop-opacity=".23"/><stop offset=".23" stop-color="#fff" stop-opacity=".41"/><stop offset=".35" stop-color="#fff" stop-opacity=".59"/><stop offset=".48" stop-color="#fff" stop-opacity=".74"/><stop offset=".6" stop-color="#fff" stop-opacity=".85"/><stop offset=".72" stop-color="#fff" stop-opacity=".93"/><stop offset=".84" stop-color="#fff" stop-opacity=".98"/><stop offset=".95" stop-color="#fff"/></linearGradient><linearGradient id="paint1_linear" x1="14013.9" y1="6307.82" x2="14046.1" y2="8345.78" gradientUnits="userSpaceOnUse"><stop stop-color="#010101" stop-opacity="0"/><stop offset=".95" stop-color="#010101"/></linearGradient><linearGradient id="paint2_linear" x1="985.383" y1="7419.64" x2="66.3013" y2="13358.6" gradientUnits="userSpaceOnUse"><stop stop-color="#010101" stop-opacity="0"/><stop offset=".95" stop-color="#010101"/></linearGradient><linearGradient id="paint3_linear" x1="1989.12" y1="20288.3" x2="9424.22" y2="66125.2" gradientUnits="userSpaceOnUse"><stop stop-color="#010101" stop-opacity="0"/><stop offset=".95" stop-color="#010101"/></linearGradient><linearGradient id="paint4_linear" x1="573.119" y1="25737.5" x2="4260.8" y2="25835.3" gradientUnits="userSpaceOnUse"><stop stop-color="#010101" stop-opacity="0"/><stop offset=".95" stop-color="#010101"/></linearGradient><clipPath id="clip0"><path d="M0 0h250v217H0V0z" fill="#fff"/></clipPath></defs></svg>